<?xml version="1.0" encoding="UTF-8"?>
<svg width="529px" height="546px" viewBox="0 0 529 546" version="1.1" xmlns="http://www.w3.org/2000/svg" xmlns:xlink="http://www.w3.org/1999/xlink">
    <!-- Generator: Sketch 52.2 (67145) - http://www.bohemiancoding.com/sketch -->
    <title>AudioFlowDiagram Copy</title>
    <desc>Created with Sketch.</desc>
    <g id="AudioFlowDiagram-Copy" stroke="none" stroke-width="1" fill="none" fill-rule="evenodd">
        <rect id="Rectangle" fill="#313234" x="293" y="46" width="176" height="103" rx="3"></rect>
        <rect id="Rectangle-Copy-3" fill="#313234" x="50" y="205" width="420" height="185" rx="3"></rect>
        <path d="M84.8458278,60.5 C83.7020852,60.5 83.2437988,60.5884992 82.7705309,60.8416057 C82.3687762,61.0564664 82.0564664,61.3687762 81.8416057,61.7705309 C81.5884992,62.2437988 81.5,62.7020852 81.5,63.8458278 L81.5,87.1541722 C81.5,88.2979148 81.5884992,88.7562012 81.8416057,89.2294691 C82.0564664,89.6312238 82.3687762,89.9435336 82.7705309,90.1583943 C83.2437988,90.4115008 83.7020852,90.5 84.8458278,90.5 L188.154172,90.5 C189.297915,90.5 189.756201,90.4115008 190.229469,90.1583943 C190.631224,89.9435336 190.943534,89.6312238 191.158394,89.2294691 C191.411501,88.7562012 191.5,88.2979148 191.5,87.1541722 L191.5,63.8458278 C191.5,62.7020852 191.411501,62.2437988 191.158394,61.7705309 C190.943534,61.3687762 190.631224,61.0564664 190.229469,60.8416057 C189.756201,60.5884992 189.297915,60.5 188.154172,60.5 L84.8458278,60.5 Z" id="Rectangle" stroke="#D45959" fill="#FFFFFF"></path>
        <path d="M84.8458278,469.5 C83.7020852,469.5 83.2437988,469.588499 82.7705309,469.841606 C82.3687762,470.056466 82.0564664,470.368776 81.8416057,470.770531 C81.5884992,471.243799 81.5,471.702085 81.5,472.845828 L81.5,496.154172 C81.5,497.297915 81.5884992,497.756201 81.8416057,498.229469 C82.0564664,498.631224 82.3687762,498.943534 82.7705309,499.158394 C83.2437988,499.411501 83.7020852,499.5 84.8458278,499.5 L188.154172,499.5 C189.297915,499.5 189.756201,499.411501 190.229469,499.158394 C190.631224,498.943534 190.943534,498.631224 191.158394,498.229469 C191.411501,497.756201 191.5,497.297915 191.5,496.154172 L191.5,472.845828 C191.5,471.702085 191.411501,471.243799 191.158394,470.770531 C190.943534,470.368776 190.631224,470.056466 190.229469,469.841606 C189.756201,469.588499 189.297915,469.5 188.154172,469.5 L84.8458278,469.5 Z" id="Rectangle-Copy-5" stroke="#D45959" fill="#FFFFFF"></path>
        <path d="M328.845828,76.5 C327.702085,76.5 327.243799,76.5884992 326.770531,76.8416057 C326.368776,77.0564664 326.056466,77.3687762 325.841606,77.7705309 C325.588499,78.2437988 325.5,78.7020852 325.5,79.8458278 L325.5,103.154172 C325.5,104.297915 325.588499,104.756201 325.841606,105.229469 C326.056466,105.631224 326.368776,105.943534 326.770531,106.158394 C327.243799,106.411501 327.702085,106.5 328.845828,106.5 L432.154172,106.5 C433.297915,106.5 433.756201,106.411501 434.229469,106.158394 C434.631224,105.943534 434.943534,105.631224 435.158394,105.229469 C435.411501,104.756201 435.5,104.297915 435.5,103.154172 L435.5,79.8458278 C435.5,78.7020852 435.411501,78.2437988 435.158394,77.7705309 C434.943534,77.3687762 434.631224,77.0564664 434.229469,76.8416057 C433.756201,76.5884992 433.297915,76.5 432.154172,76.5 L328.845828,76.5 Z" id="Rectangle-Copy" stroke="#D45959" fill="#FFFFFF"></path>
        <path d="M84.8458278,236.5 C83.7020852,236.5 83.2437988,236.588499 82.7705309,236.841606 C82.3687762,237.056466 82.0564664,237.368776 81.8416057,237.770531 C81.5884992,238.243799 81.5,238.702085 81.5,239.845828 L81.5,263.154172 C81.5,264.297915 81.5884992,264.756201 81.8416057,265.229469 C82.0564664,265.631224 82.3687762,265.943534 82.7705309,266.158394 C83.2437988,266.411501 83.7020852,266.5 84.8458278,266.5 L188.154172,266.5 C189.297915,266.5 189.756201,266.411501 190.229469,266.158394 C190.631224,265.943534 190.943534,265.631224 191.158394,265.229469 C191.411501,264.756201 191.5,264.297915 191.5,263.154172 L191.5,239.845828 C191.5,238.702085 191.411501,238.243799 191.158394,237.770531 C190.943534,237.368776 190.631224,237.056466 190.229469,236.841606 C189.756201,236.588499 189.297915,236.5 188.154172,236.5 L84.8458278,236.5 Z" id="Rectangle-Copy-4" stroke="#D45959" fill="#FFFFFF"></path>
        <path d="M84.8458278,304.5 C83.7020852,304.5 83.2437988,304.588499 82.7705309,304.841606 C82.3687762,305.056466 82.0564664,305.368776 81.8416057,305.770531 C81.5884992,306.243799 81.5,306.702085 81.5,307.845828 L81.5,331.154172 C81.5,332.297915 81.5884992,332.756201 81.8416057,333.229469 C82.0564664,333.631224 82.3687762,333.943534 82.7705309,334.158394 C83.2437988,334.411501 83.7020852,334.5 84.8458278,334.5 L188.154172,334.5 C189.297915,334.5 189.756201,334.411501 190.229469,334.158394 C190.631224,333.943534 190.943534,333.631224 191.158394,333.229469 C191.411501,332.756201 191.5,332.297915 191.5,331.154172 L191.5,307.845828 C191.5,306.702085 191.411501,306.243799 191.158394,305.770531 C190.943534,305.368776 190.631224,305.056466 190.229469,304.841606 C189.756201,304.588499 189.297915,304.5 188.154172,304.5 L84.8458278,304.5 Z" id="Rectangle-Copy-6" stroke="#D45959" fill="#FFFFFF"></path>
        <path d="M211.845828,304.5 C210.702085,304.5 210.243799,304.588499 209.770531,304.841606 C209.368776,305.056466 209.056466,305.368776 208.841606,305.770531 C208.588499,306.243799 208.5,306.702085 208.5,307.845828 L208.5,331.154172 C208.5,332.297915 208.588499,332.756201 208.841606,333.229469 C209.056466,333.631224 209.368776,333.943534 209.770531,334.158394 C210.243799,334.411501 210.702085,334.5 211.845828,334.5 L315.154172,334.5 C316.297915,334.5 316.756201,334.411501 317.229469,334.158394 C317.631224,333.943534 317.943534,333.631224 318.158394,333.229469 C318.411501,332.756201 318.5,332.297915 318.5,331.154172 L318.5,307.845828 C318.5,306.702085 318.411501,306.243799 318.158394,305.770531 C317.943534,305.368776 317.631224,305.056466 317.229469,304.841606 C316.756201,304.588499 316.297915,304.5 315.154172,304.5 L211.845828,304.5 Z" id="Rectangle-Copy-7" stroke="#D45959" fill="#FFFFFF"></path>
        <text id="Audio-input" font-family="Oxanium-Regular, Oxanium" font-size="12" font-weight="normal" fill="#313234">
            <tspan x="105.012" y="80">Audio input</tspan>
        </text>
        <text id="Audio-output" font-family="Oxanium-Regular, Oxanium" font-size="12" font-weight="normal" fill="#313234">
            <tspan x="102.096" y="489">Audio output</tspan>
        </text>
        <text id="Node.js" font-family="Oxanium-Regular, Oxanium" font-size="12" font-weight="normal" fill="#313234">
            <tspan x="360.24" y="96">Node.js</tspan>
        </text>
        <text id="Switch" font-family="Oxanium-Regular, Oxanium" font-size="12" font-weight="normal" fill="#313234">
            <tspan x="119.436" y="256">Switch</tspan>
        </text>
        <text id="Low-Pass-Filter" font-family="Oxanium-Regular, Oxanium" font-size="12" font-weight="normal" fill="#313234">
            <tspan x="96.18" y="324">Low Pass Filter</tspan>
        </text>
        <text id="Band-pass-filter" font-family="Oxanium-Regular, Oxanium" font-size="12" font-weight="normal" fill="#313234">
            <tspan x="222.444" y="324">Band pass filter</tspan>
        </text>
        <path d="M338.845828,304.5 C337.702085,304.5 337.243799,304.588499 336.770531,304.841606 C336.368776,305.056466 336.056466,305.368776 335.841606,305.770531 C335.588499,306.243799 335.5,306.702085 335.5,307.845828 L335.5,331.154172 C335.5,332.297915 335.588499,332.756201 335.841606,333.229469 C336.056466,333.631224 336.368776,333.943534 336.770531,334.158394 C337.243799,334.411501 337.702085,334.5 338.845828,334.5 L442.154172,334.5 C443.297915,334.5 443.756201,334.411501 444.229469,334.158394 C444.631224,333.943534 444.943534,333.631224 445.158394,333.229469 C445.411501,332.756201 445.5,332.297915 445.5,331.154172 L445.5,307.845828 C445.5,306.702085 445.411501,306.243799 445.158394,305.770531 C444.943534,305.368776 444.631224,305.056466 444.229469,304.841606 C443.756201,304.588499 443.297915,304.5 442.154172,304.5 L338.845828,304.5 Z" id="Rectangle-Copy-8" stroke="#D45959" fill="#FFFFFF"></path>
        <text id="Tremelo" font-family="Oxanium-Regular, Oxanium" font-size="12" font-weight="normal" fill="#313234">
            <tspan x="369.388" y="324">Tremelo</tspan>
        </text>
        <text id="Webapp" font-family="Oxanium-Regular, Oxanium" font-size="12" font-weight="normal" fill="#FFFFFF">
            <tspan x="357.308" y="139">Webapp</tspan>
        </text>
        <path id="Line-Copy-3" d="M136,96.9087533 L132.435788,103.245131 C132.300406,103.48581 131.995548,103.57117 131.754869,103.435788 C131.51419,103.300406 131.42883,102.995548 131.564212,102.754869 L136.064212,94.7548694 C136.255364,94.4150435 136.744636,94.4150435 136.935788,94.7548694 L141.435788,102.754869 C141.57117,102.995548 141.48581,103.300406 141.245131,103.435788 C141.004452,103.57117 140.699594,103.48581 140.564212,103.245131 L137,96.9087533 L137,103 L137,231.5 C137,231.776142 136.776142,232 136.5,232 C136.223858,232 136,231.776142 136,231.5 L136,103 L136,96.9087533 Z" fill="#D45959" fill-rule="nonzero"></path>
        <path id="Line-Copy-5" d="M136,272.90991 L132.435788,279.246288 C132.300406,279.486967 131.995548,279.572327 131.754869,279.436945 C131.51419,279.301563 131.42883,278.996705 131.564212,278.756026 L136.064212,270.756026 C136.255364,270.416201 136.744636,270.416201 136.935788,270.756026 L141.435788,278.756026 C141.57117,278.996705 141.48581,279.301563 141.245131,279.436945 C141.004452,279.572327 140.699594,279.486967 140.564212,279.246288 L137,272.90991 L137,279.001157 L137,297.5 C137,297.776142 136.776142,298 136.5,298 C136.223858,298 136,297.776142 136,297.5 L136,279.001157 L136,272.90991 Z" fill="#D45959" fill-rule="nonzero"></path>
        <path id="Line-Copy-6" d="M263.5,285.408753 L259.935788,291.745131 C259.800406,291.98581 259.495548,292.07117 259.254869,291.935788 C259.01419,291.800406 258.92883,291.495548 259.064212,291.254869 L263.564212,283.254869 C263.755364,282.915044 264.244636,282.915044 264.435788,283.254869 L268.935788,291.254869 C269.07117,291.495548 268.98581,291.800406 268.745131,291.935788 C268.504452,292.07117 268.199594,291.98581 268.064212,291.745131 L264.5,285.408753 L264.5,291.5 L264.5,298 C264.5,298.276142 264.276142,298.5 264,298.5 L137,298.5 C136.723858,298.5 136.5,298.276142 136.5,298 C136.5,297.723858 136.723858,297.5 137,297.5 L263.5,297.5 L263.5,291.5 L263.5,285.408753 Z" fill="#D45959" fill-rule="nonzero"></path>
        <path id="Line-Copy-7" d="M393.5,285.408753 L389.935788,291.745131 C389.800406,291.98581 389.495548,292.07117 389.254869,291.935788 C389.01419,291.800406 388.92883,291.495548 389.064212,291.254869 L393.564212,283.254869 C393.755364,282.915044 394.244636,282.915044 394.435788,283.254869 L398.935788,291.254869 C399.07117,291.495548 398.98581,291.800406 398.745131,291.935788 C398.504452,292.07117 398.199594,291.98581 398.064212,291.745131 L394.5,285.408753 L394.5,291.5 L394.5,297.955481 C394.5,298.23159 394.276195,298.455434 394.000087,298.455481 L137.000087,298.5 C136.723944,298.500048 136.500048,298.276229 136.5,298.000087 C136.499952,297.723944 136.723771,297.500048 136.999913,297.5 L393.5,297.455568 L393.5,291.5 L393.5,285.408753 Z" fill="#D45959" fill-rule="nonzero"></path>
        <path id="Line-Copy-4" d="M136,343.408753 L132.435788,349.745131 C132.300406,349.98581 131.995548,350.07117 131.754869,349.935788 C131.51419,349.800406 131.42883,349.495548 131.564212,349.254869 L136.064212,341.254869 C136.255364,340.915044 136.744636,340.915044 136.935788,341.254869 L141.435788,349.254869 C141.57117,349.495548 141.48581,349.800406 141.245131,349.935788 C141.004452,350.07117 140.699594,349.98581 140.564212,349.745131 L137,343.408753 L137,349.5 L137,462 C137,462.276142 136.776142,462.5 136.5,462.5 C136.223858,462.5 136,462.276142 136,462 L136,349.5 L136,343.408753 Z" fill="#D45959" fill-rule="nonzero"></path>
        <path id="Line-Copy-12" d="M135.5,342.408753 L131.935788,348.745131 C131.800406,348.98581 131.495548,349.07117 131.254869,348.935788 C131.01419,348.800406 130.92883,348.495548 131.064212,348.254869 L135.564212,340.254869 C135.755364,339.915044 136.244636,339.915044 136.435788,340.254869 L140.935788,348.254869 C141.07117,348.495548 140.98581,348.800406 140.745131,348.935788 C140.504452,349.07117 140.199594,348.98581 140.064212,348.745131 L136.5,342.408753 L136.5,348.5 L136.5,446.437308 L267,446.437308 C267.276142,446.437308 267.5,446.661166 267.5,446.937308 L267.5,461 C267.5,461.276142 267.276142,461.5 267,461.5 C266.723858,461.5 266.5,461.276142 266.5,461 L266.5,447.437308 L136,447.437308 C135.723858,447.437308 135.5,447.213451 135.5,446.937308 L135.5,348.5 L135.5,342.408753 Z" fill="#D45959" fill-rule="nonzero"></path>
        <path id="Line-Copy-13" d="M135.5,342.408753 L131.935788,348.745131 C131.800406,348.98581 131.495548,349.07117 131.254869,348.935788 C131.01419,348.800406 130.92883,348.495548 131.064212,348.254869 L135.564212,340.254869 C135.755364,339.915044 136.244636,339.915044 136.435788,340.254869 L140.935788,348.254869 C141.07117,348.495548 140.98581,348.800406 140.745131,348.935788 C140.504452,349.07117 140.199594,348.98581 140.064212,348.745131 L136.5,342.408753 L136.5,348.5 L136.5,446.437308 L393,446.437308 C393.276142,446.437308 393.5,446.661166 393.5,446.937308 L393.5,461 C393.5,461.276142 393.276142,461.5 393,461.5 C392.723858,461.5 392.5,461.276142 392.5,461 L392.5,447.437308 L136,447.437308 C135.723858,447.437308 135.5,447.213451 135.5,446.937308 L135.5,348.5 L135.5,342.408753 Z" fill="#D45959" fill-rule="nonzero"></path>
        <text id="audio" font-family="Oxanium-Medium, Oxanium" font-size="9" font-weight="400" fill="#D45959">
            <tspan x="143" y="146">audio</tspan>
        </text>
        <text id="filter-type" font-family="Oxanium-Medium, Oxanium" font-size="9" font-weight="400" fill="#BFB44F">
            <tspan x="243" y="180">filter type</tspan>
        </text>
        <text id="pad-x-en-y-data" font-family="Oxanium-Medium, Oxanium" font-size="9" font-weight="400" fill="#BFB44F">
            <tspan x="423" y="171">pad</tspan>
            <tspan x="423" y="180">x en y</tspan>
            <tspan x="423" y="189">data</tspan>
        </text>
        <text id="audio-met-effecten" font-family="Oxanium-Medium, Oxanium" font-size="9" font-weight="400" fill="#D45959">
            <tspan x="143" y="425">audio met </tspan>
            <tspan x="143" y="434">effecten</tspan>
        </text>
        <path id="Line-Copy-8" d="M344.5,114.408753 L340.935788,120.745131 C340.800406,120.98581 340.495548,121.07117 340.254869,120.935788 C340.01419,120.800406 339.92883,120.495548 340.064212,120.254869 L344.564212,112.254869 C344.755364,111.915044 345.244636,111.915044 345.435788,112.254869 L349.935788,120.254869 C350.07117,120.495548 349.98581,120.800406 349.745131,120.935788 C349.504452,121.07117 349.199594,120.98581 349.064212,120.745131 L345.5,114.408753 L345.5,120.5 L345.5,156.234351 C345.5,156.510493 345.276142,156.734351 345,156.734351 L180.5,156.734351 L180.5,231 C180.5,231.276142 180.276142,231.5 180,231.5 C179.723858,231.5 179.5,231.276142 179.5,231 L179.5,156.234351 C179.5,155.958209 179.723858,155.734351 180,155.734351 L344.5,155.734351 L344.5,120.5 L344.5,114.408753 Z" fill="#BFB44F" fill-rule="nonzero"></path>
        <path id="Line-Copy-9" d="M412.5,114.408753 L408.935788,120.745131 C408.800406,120.98581 408.495548,121.07117 408.254869,120.935788 C408.01419,120.800406 407.92883,120.495548 408.064212,120.254869 L412.564212,112.254869 C412.755364,111.915044 413.244636,111.915044 413.435788,112.254869 L417.935788,120.254869 C418.07117,120.495548 417.98581,120.800406 417.745131,120.935788 C417.504452,121.07117 417.199594,120.98581 417.064212,120.745131 L413.5,114.408753 L413.5,120.5 L413.5,135.349728 C413.5,135.62587 413.276142,135.849728 413,135.849728 L180.5,135.849728 L180.5,298 C180.5,298.276142 180.276142,298.5 180,298.5 C179.723858,298.5 179.5,298.276142 179.5,298 L179.5,135.349728 C179.5,135.073586 179.723858,134.849728 180,134.849728 L412.5,134.849728 L412.5,120.5 L412.5,114.408753 Z" fill="#BFB44F" fill-rule="nonzero"></path>
        <path id="Line-Copy-10" d="M412.5,114.408753 L408.935788,120.745131 C408.800406,120.98581 408.495548,121.07117 408.254869,120.935788 C408.01419,120.800406 407.92883,120.495548 408.064212,120.254869 L412.564212,112.254869 C412.755364,111.915044 413.244636,111.915044 413.435788,112.254869 L417.935788,120.254869 C418.07117,120.495548 417.98581,120.800406 417.745131,120.935788 C417.504452,121.07117 417.199594,120.98581 417.064212,120.745131 L413.5,114.408753 L413.5,120.5 L413.5,135.349728 C413.5,135.62587 413.276142,135.849728 413,135.849728 L306.5,135.849728 L306.5,298 C306.5,298.276142 306.276142,298.5 306,298.5 C305.723858,298.5 305.5,298.276142 305.5,298 L305.5,135.349728 C305.5,135.073586 305.723858,134.849728 306,134.849728 L412.5,134.849728 L412.5,120.5 L412.5,114.408753 Z" fill="#BFB44F" fill-rule="nonzero"></path>
        <path id="Line-Copy-11" d="M430.5,114.408753 L426.935788,120.745131 C426.800406,120.98581 426.495548,121.07117 426.254869,120.935788 C426.01419,120.800406 425.92883,120.495548 426.064212,120.254869 L430.564212,112.254869 C430.755364,111.915044 431.244636,111.915044 431.435788,112.254869 L435.935788,120.254869 C436.07117,120.495548 435.98581,120.800406 435.745131,120.935788 C435.504452,121.07117 435.199594,120.98581 435.064212,120.745131 L431.5,114.408753 L431.5,120.5 L431.5,135.349728 C431.5,135.62587 431.276142,135.849728 431,135.849728 L413.5,135.849728 L413.5,298 C413.5,298.276142 413.276142,298.5 413,298.5 C412.723858,298.5 412.5,298.276142 412.5,298 L412.5,135.349728 C412.5,135.073586 412.723858,134.849728 413,134.849728 L430.5,134.849728 L430.5,120.5 L430.5,114.408753 Z" fill="#BFB44F" fill-rule="nonzero"></path>
        <text id="C++-Audio-Script" font-family="Oxanium-Regular, Oxanium" font-size="12" font-weight="normal" fill="#FFFFFF">
            <tspan x="215.272" y="378">C++ Audio Script</tspan>
        </text>
    </g>
</svg>