<?xml version="1.0" encoding="UTF-8"?>
<svg width="481px" height="496px" viewBox="0 0 481 496" version="1.1" xmlns="http://www.w3.org/2000/svg" xmlns:xlink="http://www.w3.org/1999/xlink">
    <!-- Generator: Sketch 52.2 (67145) - http://www.bohemiancoding.com/sketch -->
    <title>SysteemDiagram Copy</title>
    <desc>Created with Sketch.</desc>
    <g id="SysteemDiagram-Copy" stroke="none" stroke-width="1" fill="none" fill-rule="evenodd">
        <rect id="Rectangle" fill="#313234" x="257" y="42" width="176" height="93" rx="3"></rect>
        <rect id="Rectangle-Copy-3" fill="#313234" x="45" y="194" width="388" height="138" rx="3"></rect>
        <path d="M94.8458278,66.5 C93.7020852,66.5 93.2437988,66.5884992 92.7705309,66.8416057 C92.3687762,67.0564664 92.0564664,67.3687762 91.8416057,67.7705309 C91.5884992,68.2437988 91.5,68.7020852 91.5,69.8458278 L91.5,93.1541722 C91.5,94.2979148 91.5884992,94.7562012 91.8416057,95.2294691 C92.0564664,95.6312238 92.3687762,95.9435336 92.7705309,96.1583943 C93.2437988,96.4115008 93.7020852,96.5 94.8458278,96.5 L198.154172,96.5 C199.297915,96.5 199.756201,96.4115008 200.229469,96.1583943 C200.631224,95.9435336 200.943534,95.6312238 201.158394,95.2294691 C201.411501,94.7562012 201.5,94.2979148 201.5,93.1541722 L201.5,69.8458278 C201.5,68.7020852 201.411501,68.2437988 201.158394,67.7705309 C200.943534,67.3687762 200.631224,67.0564664 200.229469,66.8416057 C199.756201,66.5884992 199.297915,66.5 198.154172,66.5 L94.8458278,66.5 Z" id="Rectangle" stroke="#D45959" fill="#FFFFFF"></path>
        <path d="M94.8458278,422.5 C93.7020852,422.5 93.2437988,422.588499 92.7705309,422.841606 C92.3687762,423.056466 92.0564664,423.368776 91.8416057,423.770531 C91.5884992,424.243799 91.5,424.702085 91.5,425.845828 L91.5,449.154172 C91.5,450.297915 91.5884992,450.756201 91.8416057,451.229469 C92.0564664,451.631224 92.3687762,451.943534 92.7705309,452.158394 C93.2437988,452.411501 93.7020852,452.5 94.8458278,452.5 L198.154172,452.5 C199.297915,452.5 199.756201,452.411501 200.229469,452.158394 C200.631224,451.943534 200.943534,451.631224 201.158394,451.229469 C201.411501,450.756201 201.5,450.297915 201.5,449.154172 L201.5,425.845828 C201.5,424.702085 201.411501,424.243799 201.158394,423.770531 C200.943534,423.368776 200.631224,423.056466 200.229469,422.841606 C199.756201,422.588499 199.297915,422.5 198.154172,422.5 L94.8458278,422.5 Z" id="Rectangle-Copy-5" stroke="#D45959" fill="#FFFFFF"></path>
        <path d="M292.845828,65.5 C291.702085,65.5 291.243799,65.5884992 290.770531,65.8416057 C290.368776,66.0564664 290.056466,66.3687762 289.841606,66.7705309 C289.588499,67.2437988 289.5,67.7020852 289.5,68.8458278 L289.5,92.1541722 C289.5,93.2979148 289.588499,93.7562012 289.841606,94.2294691 C290.056466,94.6312238 290.368776,94.9435336 290.770531,95.1583943 C291.243799,95.4115008 291.702085,95.5 292.845828,95.5 L396.154172,95.5 C397.297915,95.5 397.756201,95.4115008 398.229469,95.1583943 C398.631224,94.9435336 398.943534,94.6312238 399.158394,94.2294691 C399.411501,93.7562012 399.5,93.2979148 399.5,92.1541722 L399.5,68.8458278 C399.5,67.7020852 399.411501,67.2437988 399.158394,66.7705309 C398.943534,66.3687762 398.631224,66.0564664 398.229469,65.8416057 C397.756201,65.5884992 397.297915,65.5 396.154172,65.5 L292.845828,65.5 Z" id="Rectangle-Copy" stroke="#D45959" fill="#FFFFFF"></path>
        <path d="M292.845828,242.5 C291.702085,242.5 291.243799,242.588499 290.770531,242.841606 C290.368776,243.056466 290.056466,243.368776 289.841606,243.770531 C289.588499,244.243799 289.5,244.702085 289.5,245.845828 L289.5,269.154172 C289.5,270.297915 289.588499,270.756201 289.841606,271.229469 C290.056466,271.631224 290.368776,271.943534 290.770531,272.158394 C291.243799,272.411501 291.702085,272.5 292.845828,272.5 L396.154172,272.5 C397.297915,272.5 397.756201,272.411501 398.229469,272.158394 C398.631224,271.943534 398.943534,271.631224 399.158394,271.229469 C399.411501,270.756201 399.5,270.297915 399.5,269.154172 L399.5,245.845828 C399.5,244.702085 399.411501,244.243799 399.158394,243.770531 C398.943534,243.368776 398.631224,243.056466 398.229469,242.841606 C397.756201,242.588499 397.297915,242.5 396.154172,242.5 L292.845828,242.5 Z" id="Rectangle-Copy-2" stroke="#D45959" fill="#FFFFFF"></path>
        <path d="M94.8458278,242.5 C93.7020852,242.5 93.2437988,242.588499 92.7705309,242.841606 C92.3687762,243.056466 92.0564664,243.368776 91.8416057,243.770531 C91.5884992,244.243799 91.5,244.702085 91.5,245.845828 L91.5,269.154172 C91.5,270.297915 91.5884992,270.756201 91.8416057,271.229469 C92.0564664,271.631224 92.3687762,271.943534 92.7705309,272.158394 C93.2437988,272.411501 93.7020852,272.5 94.8458278,272.5 L198.154172,272.5 C199.297915,272.5 199.756201,272.411501 200.229469,272.158394 C200.631224,271.943534 200.943534,271.631224 201.158394,271.229469 C201.411501,270.756201 201.5,270.297915 201.5,269.154172 L201.5,245.845828 C201.5,244.702085 201.411501,244.243799 201.158394,243.770531 C200.943534,243.368776 200.631224,243.056466 200.229469,242.841606 C199.756201,242.588499 199.297915,242.5 198.154172,242.5 L94.8458278,242.5 Z" id="Rectangle-Copy-4" stroke="#D45959" fill="#FFFFFF"></path>
        <text id="Audio-input" font-family="Oxanium-Regular, Oxanium" font-size="12" font-weight="normal" fill="#313234">
            <tspan x="115.012" y="86">Audio input</tspan>
        </text>
        <text id="Audio-output" font-family="Oxanium-Regular, Oxanium" font-size="12" font-weight="normal" fill="#313234">
            <tspan x="111.096" y="442">Audio output</tspan>
        </text>
        <text id="Webapp" font-family="Oxanium-Regular, Oxanium" font-size="12" font-weight="normal" fill="#313234">
            <tspan x="322.308" y="85">Webapp</tspan>
        </text>
        <text id="Node.js" font-family="Oxanium-Regular, Oxanium" font-size="12" font-weight="normal" fill="#313234">
            <tspan x="324.24" y="262">Node.js</tspan>
        </text>
        <text id="C++" font-family="Oxanium-Regular, Oxanium" font-size="12" font-weight="normal" fill="#313234">
            <tspan x="137.404" y="262">C++</tspan>
        </text>
        <text id="Telefoon" font-family="Oxanium-Regular, Oxanium" font-size="12" font-weight="normal" fill="#FFFFFF">
            <tspan x="319.196" y="125">Telefoon</tspan>
        </text>
        <text id="Raspberry-Pi" font-family="Oxanium-Regular, Oxanium" font-size="12" font-weight="normal" fill="#FFFFFF">
            <tspan x="205.236" y="321">Raspberry Pi</tspan>
        </text>
        <path id="Line" d="M308,102.908753 L304.435788,109.245131 C304.300406,109.48581 303.995548,109.57117 303.754869,109.435788 C303.51419,109.300406 303.42883,108.995548 303.564212,108.754869 L308.064212,100.754869 C308.255364,100.415044 308.744636,100.415044 308.935788,100.754869 L313.435788,108.754869 C313.57117,108.995548 313.48581,109.300406 313.245131,109.435788 C313.004452,109.57117 312.699594,109.48581 312.564212,109.245131 L309,102.908753 L309,109 L309,237.5 C309,237.776142 308.776142,238 308.5,238 C308.223858,238 308,237.776142 308,237.5 L308,109 L308,102.908753 Z" fill="#D45959" fill-rule="nonzero"></path>
        <path id="Line-Copy-2" d="M215.912616,258.488979 L222.276645,262.003581 C222.518374,262.137079 222.606113,262.44126 222.472616,262.682989 C222.339118,262.924719 222.034937,263.012458 221.793208,262.87896 L213.758297,258.441596 C213.416988,258.253104 213.413165,257.763848 213.751488,257.570047 L221.716088,253.007686 C221.955702,252.870428 222.261217,252.953404 222.398475,253.193018 C222.535733,253.432632 222.452758,253.738147 222.213144,253.875405 L215.904804,257.48901 L221.988388,257.441482 L278.496094,257.000015 C278.772228,256.997858 278.997827,257.21996 278.999985,257.496094 C279.002142,257.772228 278.78004,257.997827 278.503906,257.999985 L221.9962,258.441451 L215.912616,258.488979 Z" fill="#D45959" fill-rule="nonzero"></path>
        <path id="Line-Copy" d="M379,102.908753 L375.435788,109.245131 C375.300406,109.48581 374.995548,109.57117 374.754869,109.435788 C374.51419,109.300406 374.42883,108.995548 374.564212,108.754869 L379.064212,100.754869 C379.255364,100.415044 379.744636,100.415044 379.935788,100.754869 L384.435788,108.754869 C384.57117,108.995548 384.48581,109.300406 384.245131,109.435788 C384.004452,109.57117 383.699594,109.48581 383.564212,109.245131 L380,102.908753 L380,109 L380,237.5 C380,237.776142 379.776142,238 379.5,238 C379.223858,238 379,237.776142 379,237.5 L379,109 L379,102.908753 Z" fill="#D45959" fill-rule="nonzero"></path>
        <path id="Line-Copy-3" d="M146,102.908753 L142.435788,109.245131 C142.300406,109.48581 141.995548,109.57117 141.754869,109.435788 C141.51419,109.300406 141.42883,108.995548 141.564212,108.754869 L146.064212,100.754869 C146.255364,100.415044 146.744636,100.415044 146.935788,100.754869 L151.435788,108.754869 C151.57117,108.995548 151.48581,109.300406 151.245131,109.435788 C151.004452,109.57117 150.699594,109.48581 150.564212,109.245131 L147,102.908753 L147,109 L147,237.5 C147,237.776142 146.776142,238 146.5,238 C146.223858,238 146,237.776142 146,237.5 L146,109 L146,102.908753 Z" fill="#D45959" fill-rule="nonzero"></path>
        <path id="Line-Copy-4" d="M146,279.908753 L142.435788,286.245131 C142.300406,286.48581 141.995548,286.57117 141.754869,286.435788 C141.51419,286.300406 141.42883,285.995548 141.564212,285.754869 L146.064212,277.754869 C146.255364,277.415044 146.744636,277.415044 146.935788,277.754869 L151.435788,285.754869 C151.57117,285.995548 151.48581,286.300406 151.245131,286.435788 C151.004452,286.57117 150.699594,286.48581 150.564212,286.245131 L147,279.908753 L147,286 L147,414.5 C147,414.776142 146.776142,415 146.5,415 C146.223858,415 146,414.776142 146,414.5 L146,286 L146,279.908753 Z" fill="#D45959" fill-rule="nonzero"></path>
        <text id="host-webapp" font-family="Oxanium-Medium, Oxanium" font-size="9" font-weight="400" fill="#D45959">
            <tspan x="314" y="162">host </tspan>
            <tspan x="314" y="171">webapp</tspan>
        </text>
        <text id="OSC-data" font-family="Oxanium-Medium, Oxanium" font-size="9" font-weight="400" fill="#D45959">
            <tspan x="386" y="163">OSC </tspan>
            <tspan x="386" y="172">data</tspan>
        </text>
        <text id="audio" font-family="Oxanium-Medium, Oxanium" font-size="9" font-weight="400" fill="#D45959">
            <tspan x="153" y="164">audio</tspan>
        </text>
        <text id="audio-met-effecten" font-family="Oxanium-Medium, Oxanium" font-size="9" font-weight="400" fill="#D45959">
            <tspan x="153" y="371">audio met </tspan>
            <tspan x="153" y="380">effecten</tspan>
        </text>
        <text id="OSC" font-family="Oxanium-Medium, Oxanium" font-size="9" font-weight="400" fill="#D45959">
            <tspan x="239" y="252">OSC</tspan>
        </text>
    </g>
</svg>